/* XPM */
static char *_506958508294[] = {
/* columns rows colors chars-per-pixel */
"4 2 8 1 ",
"  c black",
". c red",
"X c green",
"o c yellow",
"O c blue",
"+ c magenta",
"@ c cyan",
"# c white",
/* pixels */
".+O@",
"Xo# "
};
